<?xml version="1.0" encoding="iso-8859-1"?>
<!-- Generator: Adobe Illustrator 19.0.0, SVG Export Plug-In . SVG Version: 6.00 Build 0)  -->
<svg version="1.1" id="Capa_1" xmlns="http://www.w3.org/2000/svg" xmlns:xlink="http://www.w3.org/1999/xlink" x="0px" y="0px"
	 viewBox="0 0 512 512" style="enable-background:new 0 0 512 512;" xml:space="preserve">
<g>
	<g>
		<path d="M349.668,178.43l-15.12-2.588c-12.955-2.221-26.002,0.741-36.733,8.335c-10.731,7.593-17.862,18.911-20.08,31.868
			c-4.58,26.748,13.455,52.234,40.203,56.814l15.12,2.589c2.798,0.479,5.582,0.711,8.33,0.711
			c23.521-0.001,44.383-16.966,48.484-40.915C394.451,208.496,376.415,183.01,349.668,178.43z M360.302,230.182
			c-1.788,10.443-11.743,17.48-22.182,15.697L323,243.29c-10.443-1.788-17.484-11.739-15.696-22.182
			c0.866-5.059,3.65-9.477,7.84-12.442c3.282-2.322,7.118-3.535,11.058-3.535c1.09,0,2.188,0.093,3.284,0.281l15.12,2.588
			C355.048,209.788,362.09,219.74,360.302,230.182z"/>
	</g>
</g>
<g>
	<g>
		<path d="M234.265,216.047c-2.218-12.958-9.349-24.276-20.08-31.869c-10.731-7.594-23.777-10.553-36.733-8.335l-15.12,2.589
			c-26.748,4.58-44.783,30.066-40.204,56.814c4.101,23.951,24.961,40.915,48.484,40.915c2.747,0,5.534-0.232,8.331-0.711
			l15.119-2.589C220.81,268.281,238.845,242.794,234.265,216.047z M189,243.29l-15.12,2.589
			c-10.443,1.788-20.395-5.254-22.182-15.697c-1.788-10.443,5.253-20.394,15.696-22.182l15.12-2.589
			c1.096-0.188,2.194-0.28,3.284-0.28c3.94,0,7.776,1.212,11.058,3.535c4.189,2.965,6.974,7.383,7.84,12.442
			C206.483,231.551,199.442,241.501,189,243.29z"/>
	</g>
</g>
<g>
	<g>
		<path d="M512,374.88c0-26.254-21.36-47.614-47.614-47.614c-21.016,0-38.896,13.687-45.194,32.614H380.14
			c18.911-16.249,34.674-36.23,45.953-58.375c13.722-26.94,20.679-56.029,20.679-86.458c0-105.192-85.58-190.771-190.771-190.771
			S65.229,109.857,65.229,215.048c0,30.46,7.361,60.765,21.288,87.639c11.241,21.693,26.78,41.229,45.365,57.193H92.808
			c-6.298-18.928-24.178-32.614-45.194-32.614C21.36,327.266,0,348.626,0,374.88c0,12.608,4.926,24.087,12.954,32.614
			C4.926,416.022,0,427.501,0,440.109c0,26.254,21.36,47.614,47.614,47.614c21.016,0,38.896-13.687,45.194-32.614h44.33v15.979
			h239.677v-15.979h42.377c6.298,18.928,24.178,32.614,45.194,32.614c26.254,0,47.614-21.36,47.614-47.614
			c0-12.608-4.926-24.087-12.954-32.615C507.074,398.968,512,387.488,512,374.88z M137.137,425.109H65.229v15
			c0,9.712-7.902,17.614-17.614,17.614c-9.712,0-17.615-7.901-17.615-17.614c0-9.713,7.902-17.615,17.614-17.615v-30
			c-9.712,0-17.614-7.902-17.614-17.614c0-9.712,7.902-17.614,17.614-17.614c9.712,0,17.614,7.902,17.614,17.614v15h71.909V425.109z
			 M352.775,343.435l-5.961,4.499v93.155h-39.892v-55.306h-30v55.306H237.03v-55.306h-30v55.306h-39.892v-91.836l-6.127-4.495
			c-19.955-14.641-36.504-33.961-47.859-55.872c-11.893-22.951-17.923-47.793-17.923-73.836c0-88.65,72.122-160.771,160.771-160.771
			s160.771,72.122,160.771,160.771c0,25.652-5.858,50.16-17.411,72.843C388.333,309.542,372.224,328.747,352.775,343.435z
			 M482,440.109c0,9.712-7.902,17.614-17.614,17.614c-9.712,0-17.614-7.902-17.614-17.614v-15h-69.957V389.88h69.957v-15
			c0-9.712,7.902-17.614,17.614-17.614c9.712,0,17.614,7.902,17.614,17.614c0,9.712-7.902,17.614-17.614,17.614v30
			C474.098,422.495,482,430.396,482,440.109z"/>
	</g>
</g>
<g>
	<g>
		<rect x="241" y="296.8" width="30" height="44.48"/>
	</g>
</g>
<g>
</g>
<g>
</g>
<g>
</g>
<g>
</g>
<g>
</g>
<g>
</g>
<g>
</g>
<g>
</g>
<g>
</g>
<g>
</g>
<g>
</g>
<g>
</g>
<g>
</g>
<g>
</g>
<g>
</g>
</svg>
